<svg xmlns="http://www.w3.org/2000/svg" xmlns:xlink="http://www.w3.org/1999/xlink" width="256" zoomAndPan="magnify" viewBox="0 0 192 50.999998" height="68" preserveAspectRatio="xMidYMid meet" version="1.0"><defs><g/></defs><g fill="#000000" fill-opacity="1"><g transform="translate(-0.53352, 32.457124)"><g><path d="M 12.234375 -25.140625 C 13.109375 -26.503906 14.3125 -27.601562 15.84375 -28.4375 C 17.382812 -29.28125 19.1875 -29.703125 21.25 -29.703125 C 23.664062 -29.703125 25.851562 -29.085938 27.8125 -27.859375 C 29.769531 -26.640625 31.316406 -24.890625 32.453125 -22.609375 C 33.597656 -20.335938 34.171875 -17.703125 34.171875 -14.703125 C 34.171875 -11.691406 33.597656 -9.039062 32.453125 -6.75 C 31.316406 -4.457031 29.769531 -2.6875 27.8125 -1.4375 C 25.851562 -0.195312 23.664062 0.421875 21.25 0.421875 C 19.226562 0.421875 17.4375 0.00390625 15.875 -0.828125 C 14.320312 -1.671875 13.109375 -2.757812 12.234375 -4.09375 L 12.234375 13.953125 L 3.25 13.953125 L 3.25 -29.28125 L 12.234375 -29.28125 Z M 25.03125 -14.703125 C 25.03125 -16.929688 24.410156 -18.6875 23.171875 -19.96875 C 21.929688 -21.25 20.398438 -21.890625 18.578125 -21.890625 C 16.796875 -21.890625 15.28125 -21.238281 14.03125 -19.9375 C 12.789062 -18.644531 12.171875 -16.878906 12.171875 -14.640625 C 12.171875 -12.398438 12.789062 -10.632812 14.03125 -9.34375 C 15.28125 -8.050781 16.796875 -7.40625 18.578125 -7.40625 C 20.359375 -7.40625 21.878906 -8.0625 23.140625 -9.375 C 24.398438 -10.6875 25.03125 -12.460938 25.03125 -14.703125 Z M 25.03125 -14.703125 "/></g></g></g><g fill="#000000" fill-opacity="1"><g transform="translate(32.474463, 32.457124)"><g><path d="M 12.234375 -24.40625 C 13.273438 -26.007812 14.582031 -27.273438 16.15625 -28.203125 C 17.738281 -29.128906 19.488281 -29.59375 21.40625 -29.59375 L 21.40625 -20.09375 L 18.953125 -20.09375 C 16.710938 -20.09375 15.03125 -19.613281 13.90625 -18.65625 C 12.789062 -17.695312 12.234375 -16.007812 12.234375 -13.59375 L 12.234375 0 L 3.25 0 L 3.25 -29.28125 L 12.234375 -29.28125 Z M 12.234375 -24.40625 "/></g></g></g><g fill="#000000" fill-opacity="1"><g transform="translate(52.31065, 32.457124)"><g><path d="M 30.859375 -15.109375 C 30.859375 -14.273438 30.804688 -13.398438 30.703125 -12.484375 L 10.390625 -12.484375 C 10.535156 -10.671875 11.125 -9.28125 12.15625 -8.3125 C 13.1875 -7.351562 14.453125 -6.875 15.953125 -6.875 C 18.191406 -6.875 19.75 -7.816406 20.625 -9.703125 L 30.171875 -9.703125 C 29.679688 -7.785156 28.796875 -6.054688 27.515625 -4.515625 C 26.242188 -2.972656 24.644531 -1.765625 22.71875 -0.890625 C 20.800781 -0.015625 18.648438 0.421875 16.265625 0.421875 C 13.398438 0.421875 10.847656 -0.1875 8.609375 -1.40625 C 6.367188 -2.632812 4.617188 -4.382812 3.359375 -6.65625 C 2.097656 -8.9375 1.46875 -11.597656 1.46875 -14.640625 C 1.46875 -17.679688 2.085938 -20.335938 3.328125 -22.609375 C 4.578125 -24.890625 6.316406 -26.640625 8.546875 -27.859375 C 10.785156 -29.085938 13.359375 -29.703125 16.265625 -29.703125 C 19.097656 -29.703125 21.617188 -29.109375 23.828125 -27.921875 C 26.035156 -26.734375 27.757812 -25.035156 29 -22.828125 C 30.238281 -20.628906 30.859375 -18.054688 30.859375 -15.109375 Z M 21.671875 -17.484375 C 21.671875 -19.015625 21.144531 -20.234375 20.09375 -21.140625 C 19.050781 -22.054688 17.742188 -22.515625 16.171875 -22.515625 C 14.660156 -22.515625 13.390625 -22.078125 12.359375 -21.203125 C 11.328125 -20.328125 10.6875 -19.085938 10.4375 -17.484375 Z M 21.671875 -17.484375 "/></g></g></g><g fill="#000000" fill-opacity="1"><g transform="translate(82.012568, 32.457124)"><g><path d="M 12.234375 -25.140625 C 13.109375 -26.503906 14.3125 -27.601562 15.84375 -28.4375 C 17.382812 -29.28125 19.1875 -29.703125 21.25 -29.703125 C 23.664062 -29.703125 25.851562 -29.085938 27.8125 -27.859375 C 29.769531 -26.640625 31.316406 -24.890625 32.453125 -22.609375 C 33.597656 -20.335938 34.171875 -17.703125 34.171875 -14.703125 C 34.171875 -11.691406 33.597656 -9.039062 32.453125 -6.75 C 31.316406 -4.457031 29.769531 -2.6875 27.8125 -1.4375 C 25.851562 -0.195312 23.664062 0.421875 21.25 0.421875 C 19.226562 0.421875 17.4375 0.00390625 15.875 -0.828125 C 14.320312 -1.671875 13.109375 -2.757812 12.234375 -4.09375 L 12.234375 13.953125 L 3.25 13.953125 L 3.25 -29.28125 L 12.234375 -29.28125 Z M 25.03125 -14.703125 C 25.03125 -16.929688 24.410156 -18.6875 23.171875 -19.96875 C 21.929688 -21.25 20.398438 -21.890625 18.578125 -21.890625 C 16.796875 -21.890625 15.28125 -21.238281 14.03125 -19.9375 C 12.789062 -18.644531 12.171875 -16.878906 12.171875 -14.640625 C 12.171875 -12.398438 12.789062 -10.632812 14.03125 -9.34375 C 15.28125 -8.050781 16.796875 -7.40625 18.578125 -7.40625 C 20.359375 -7.40625 21.878906 -8.0625 23.140625 -9.375 C 24.398438 -10.6875 25.03125 -12.460938 25.03125 -14.703125 Z M 25.03125 -14.703125 "/></g></g></g><g fill="#000000" fill-opacity="1"><g transform="translate(115.020548, 32.457124)"><g><path d="M 11.65625 -7.40625 L 24.359375 -7.40625 L 24.359375 0 L 1.625 0 L 1.625 -7.140625 L 13.796875 -21.890625 L 1.734375 -21.890625 L 1.734375 -29.28125 L 24.09375 -29.28125 L 24.09375 -22.140625 Z M 11.65625 -7.40625 "/></g></g></g><g fill="#000000" fill-opacity="1"><g transform="translate(138.425188, 32.457124)"><g><path d="M 16.578125 0.421875 C 13.710938 0.421875 11.132812 -0.1875 8.84375 -1.40625 C 6.550781 -2.632812 4.75 -4.382812 3.4375 -6.65625 C 2.125 -8.9375 1.46875 -11.597656 1.46875 -14.640625 C 1.46875 -17.648438 2.128906 -20.300781 3.453125 -22.59375 C 4.785156 -24.882812 6.609375 -26.640625 8.921875 -27.859375 C 11.234375 -29.085938 13.820312 -29.703125 16.6875 -29.703125 C 19.5625 -29.703125 22.148438 -29.085938 24.453125 -27.859375 C 26.765625 -26.640625 28.582031 -24.882812 29.90625 -22.59375 C 31.238281 -20.300781 31.90625 -17.648438 31.90625 -14.640625 C 31.90625 -11.628906 31.234375 -8.976562 29.890625 -6.6875 C 28.546875 -4.394531 26.707031 -2.632812 24.375 -1.40625 C 22.050781 -0.1875 19.453125 0.421875 16.578125 0.421875 Z M 16.578125 -7.34375 C 18.296875 -7.34375 19.757812 -7.972656 20.96875 -9.234375 C 22.175781 -10.492188 22.78125 -12.296875 22.78125 -14.640625 C 22.78125 -16.984375 22.191406 -18.785156 21.015625 -20.046875 C 19.847656 -21.304688 18.40625 -21.9375 16.6875 -21.9375 C 14.9375 -21.9375 13.484375 -21.316406 12.328125 -20.078125 C 11.179688 -18.835938 10.609375 -17.023438 10.609375 -14.640625 C 10.609375 -12.296875 11.175781 -10.492188 12.3125 -9.234375 C 13.445312 -7.972656 14.867188 -7.34375 16.578125 -7.34375 Z M 16.578125 -7.34375 "/></g></g></g><g fill="#000000" fill-opacity="1"><g transform="translate(169.229132, 32.457124)"><g/></g></g><g fill="#000000" fill-opacity="1"><g transform="translate(177.730236, 32.457124)"><g><path d="M 7.453125 0.421875 C 5.878906 0.421875 4.59375 -0.0390625 3.59375 -0.96875 C 2.59375 -1.894531 2.09375 -3.039062 2.09375 -4.40625 C 2.09375 -5.8125 2.59375 -6.984375 3.59375 -7.921875 C 4.59375 -8.867188 5.878906 -9.34375 7.453125 -9.34375 C 8.992188 -9.34375 10.257812 -8.867188 11.25 -7.921875 C 12.25 -6.984375 12.75 -5.8125 12.75 -4.40625 C 12.75 -3.039062 12.25 -1.894531 11.25 -0.96875 C 10.257812 -0.0390625 8.992188 0.421875 7.453125 0.421875 Z M 7.453125 0.421875 "/></g></g></g></svg>